<?xml version="1.0" encoding="UTF-8" standalone="no"?>
<!-- Created with Inkscape (http://www.inkscape.org/) -->

<svg
   width="377.95276"
   height="378.24698"
   viewBox="0 0 100 100.07784"
   version="1.1"
   id="svg1173"
   inkscape:version="1.1.2 (0a00cf5339, 2022-02-04)"
   sodipodi:docname="ParentVUE.svg"
   xmlns:inkscape="http://www.inkscape.org/namespaces/inkscape"
   xmlns:sodipodi="http://sodipodi.sourceforge.net/DTD/sodipodi-0.dtd"
   xmlns="http://www.w3.org/2000/svg"
   xmlns:svg="http://www.w3.org/2000/svg">
  <sodipodi:namedview
     id="namedview1175"
     pagecolor="#ffffff"
     bordercolor="#666666"
     borderopacity="1.0"
     inkscape:pageshadow="2"
     inkscape:pageopacity="0.0"
     inkscape:pagecheckerboard="0"
     inkscape:document-units="mm"
     showgrid="false"
     fit-margin-top="0"
     fit-margin-left="0"
     fit-margin-right="0"
     fit-margin-bottom="0"
     units="px"
     width="100px"
     inkscape:zoom="1.3826038"
     inkscape:cx="107.40604"
     inkscape:cy="182.26479"
     inkscape:window-width="1920"
     inkscape:window-height="1011"
     inkscape:window-x="0"
     inkscape:window-y="0"
     inkscape:window-maximized="1"
     inkscape:current-layer="layer1" />
  <defs
     id="defs1170" />
  <g
     inkscape:label="Layer 1"
     inkscape:groupmode="layer"
     id="layer1"
     transform="translate(-16.539934,-65.523733)">
    <path
       class="cls-3"
       d="M 87.423958,90.35223 C 87.633607,80.848141 78.024687,71.344051 70.092966,67.937251 a 27.95321,27.95321 0 0 0 -28.966516,3.826099 33.805912,33.805912 0 0 0 -8.613077,11.146338 24.074702,24.074702 0 0 0 -2.533261,8.246201 20.964907,20.964907 0 0 1 -0.559086,4.262862 c 2.882678,-4.507455 6.446712,-9.276975 11.687939,-11.146344 a 15.566444,15.566444 0 0 1 14.151313,2.585676 18.920829,18.920829 0 0 1 4.68216,5.5557 l 2.865206,4.752042 a 8.8926144,8.8926144 0 0 0 0.524156,0.87354 v 0 a 13.17295,13.17295 0 0 0 24.092172,-7.442543 z"
       id="path58"
       style="fill:#5f2364;stroke-width:1.74707" />
    <path
       class="cls-4"
       d="M 59.348454,100.85216 A 13.277774,13.277774 0 0 0 49.931711,88.133443 v 0 c -0.349437,-0.104858 -0.681356,-0.192151 -1.030773,-0.262078 h -0.209649 -0.27951 a 10.16798,10.16798 0 0 0 -1.275367,-0.139788 v 0 h -0.4018 c -0.541587,0 -1.083189,0 -1.624783,0 a 19.637129,19.637129 0 0 0 -2.655551,0.209649 v 0 a 34.260152,34.260152 0 0 0 -18.781064,10.098099 27.761031,27.761031 0 0 0 -5.241226,28.652045 33.98062,33.98062 0 0 0 13.330188,15.89838 c 1.362719,0.8386 4.8394,1.74708 5.765349,2.81279 -3.494153,-4.31527 -6.988307,-9.17214 -7.180484,-14.72784 -0.192151,-7.1106 5.660525,-13.53984 12.596416,-15.28692 0.995837,-0.24458 1.974195,-0.43679 2.917615,-0.62894 v 0 l 2.02661,-0.48916 a 16.964104,16.964104 0 0 0 4.437575,-1.74708 13.679602,13.679602 0 0 0 2.306139,-1.55489 l 0.576519,-0.48916 0.611449,-0.66389 v 0 a 13.347657,13.347657 0 0 0 3.529097,-8.9625 z"
       id="path60"
       style="fill:#5c9342;stroke-width:1.74707" />
    <path
       class="cls-5"
       d="m 71.473157,155.32597 c -6.848539,-2.00914 -11.181282,-9.5565 -10.692103,-16.6671 0,-0.62895 0.08736,-1.2579 0.12229,-1.86937 v 0 0 c 0,-0.26208 0,-0.50666 0,-0.76871 v -0.15722 c 0,-0.15722 0,-0.31444 0,-0.47173 a 33.0372,33.0372 0 0 0 -0.192151,-5.57317 v 0 a 13.155479,13.155479 0 0 0 -25.996485,-0.90848 v 0 0 c 0,0.43679 -0.139788,0.89101 -0.174719,1.32778 a 47.171041,47.171041 0 0 0 -0.349437,5.88765 v 0 a 29.700285,29.700285 0 0 0 4.123094,15.46161 27.95321,27.95321 0 0 0 25.682012,13.97661 34.469801,34.469801 0 0 0 13.592253,-4.05322 24.249409,24.249409 0 0 0 6.83106,-5.11893 19.217831,19.217831 0 0 1 3.074855,-3.21462 c -5.101459,1.78202 -10.552335,3.75621 -16.020682,2.1489 z"
       id="path62"
       style="fill:#df0f79;stroke-width:1.74707" />
    <path
       class="cls-6"
       d="m 116.02359,120.68146 a 24.459058,24.459058 0 0 0 -2.79533,-8.1239 23.847582,23.847582 0 0 1 -2.09649,-3.80862 c 0.26208,5.34605 0.24458,11.2337 -2.90014,15.8285 -4.03575,5.88765 -12.578949,7.6522 -19.217832,4.99664 l -0.349437,-0.13979 c -1.450072,-0.64645 -2.917615,-1.27536 -4.350221,-1.95672 h -0.139788 a 9.6962697,9.6962697 0 0 0 -1.048246,-0.50666 v 0 a 12.980771,12.980771 0 0 0 -5.241227,-1.11813 13.295245,13.295245 0 0 0 -7.320245,24.30182 v 0 l 0.209649,0.12229 0.314506,0.20965 c 0.611449,0.38437 1.222951,0.76872 1.851898,1.11814 0.628947,0.34943 1.747074,0.90847 2.673023,1.32777 l 0.611449,0.24458 v 0 l 1.257894,0.50666 a 29.944876,29.944876 0 0 0 16.87675,1.1356 27.795973,27.795973 0 0 0 21.174547,-20.05643 33.858325,33.858325 0 0 0 0.48916,-14.08143 z"
       id="path64"
       style="fill:#2972ba;stroke-width:1.74707" />
    <path
       class="cls-7"
       d="m 101.31321,76.934689 a 32.949846,32.949846 0 0 0 -14.850144,-4.89181 31.185299,31.185299 0 0 0 -6.254529,0.192151 19.986545,19.986545 0 0 0 -2.428436,0.576519 l 1.886842,1.747073 a 20.423313,20.423313 0 0 1 9.661329,6.254529 c 4.018269,5.241226 3.494147,12.945833 -0.174719,18.414181 l -0.4018,0.489159 -1.432599,1.747069 c -0.960893,1.17055 -1.904314,2.34109 -2.777854,3.49416 -0.244579,0.34944 -0.506657,0.69883 -0.733772,1.06572 a 7.4600126,7.4600126 0 0 0 -0.524089,0.7687 v 0 a 13.295245,13.295245 0 0 0 11.216225,20.23114 h 0.104858 1.030773 a 13.19042,13.19042 0 0 0 9.259505,-5.06652 35.168631,35.168631 0 0 0 3.17968,-3.82609 29.700285,29.700285 0 0 0 5.8527,-14.98991 27.761031,27.761031 0 0 0 -12.61389,-26.206137 z"
       id="path66"
       style="fill:#e96927;stroke-width:1.74707" />
  </g>
</svg>
