<svg xmlns="http://www.w3.org/2000/svg" viewBox="0 0 313.9 314.75"><defs><style>.cls-1{fill:#1e3967;}.cls-2{fill:#f6be59;}.cls-3{fill:#c13844;}.cls-4{fill:#145ea5;}</style></defs><g id="Layer_2" data-name="Layer 2"><g id="Layer_1-2" data-name="Layer 1"><path class="cls-1" d="M147.78,314.75c-7.94-3.63-16.67-5-24.63-8.68a131.13,131.13,0,0,1-19-10.25c.85-1.6,2-1.23,2.88-1.21,33.42.93,62.28-11.08,86.23-33.39C219.28,236.94,243.83,211,269,185.85c.71-.7,1.41-1.42,2.12-2.12s1.38-1.66,2.47-1.44c1.56.33,1.12,1.81,1.31,2.88a100,100,0,0,1-3.3,48.83c-10.64,33-31,57.8-62.82,72.44-6.52,3-13,6.89-20.76,6.48-1.06-.05-2.19,1.19-3.28,1.83Z"/><path class="cls-2" d="M158.78,0c2.23,3.27,5.95,2.29,9,2.9a114.45,114.45,0,0,1,39.89,15.82c.36.23.5.8.75,1.21-1.08,1.73-2.74,1-4.11,1-35.53.19-65.15,14.27-90.08,38.83-23.94,23.6-47.54,47.55-71.3,71.33-.91.9-1.69,2.54-3.1,2.17-1.68-.45-1.57-2.43-1.77-3.78-4.18-29.32,2.69-56.08,19.25-80.38C71,29.08,88.94,14.23,112,6c6.79-2.42,13.86-4,20.81-6Z"/><path class="cls-3" d="M20.82,108.36c-.15,9.65.28,19,2.36,28.34,5.41,24.13,16.47,45.3,33.76,62.92,24,24.47,48.45,48.52,72.67,72.79,1.36,1.36,4,2.59,3.48,4.49-.7,2.4-3.68,1.45-5.68,1.72-52.9,7.16-107.65-27.46-122.83-78-9.65-32.09-3.5-62.13,13.26-90.48A2.74,2.74,0,0,1,20.82,108.36Z"/><path class="cls-4" d="M294.25,211.1c-1.82-7.26-1-14.38-2.12-21.43A130,130,0,0,0,255.19,117c-23.8-24-47.83-47.76-71.74-71.65-1.12-1.12-3.16-2.07-2.62-3.92s2.79-1.39,4.34-1.59c53.39-7,106.12,25,123.23,75.43,10.46,30.85,5.36,60.37-9.92,88.53C297.14,206.3,295.66,208.69,294.25,211.1Z"/><path class="cls-1" d="M193.1,239.41c-1.69.08-2.39-.95-3.18-1.76-6.87-7-13.64-14.13-20.62-21-2.73-2.71-.55-4,1.06-5.6q25.6-25.62,51.23-51.22c7.78-7.76,15.67-15.42,23.26-23.36,2.69-2.81,4.16-2.59,6.63.23a109.62,109.62,0,0,1,16.14,24.52c1.08,2.22.61,3.66-1,5.28q-35.73,35.63-71.41,71.3A20.68,20.68,0,0,1,193.1,239.41Z"/><path class="cls-3" d="M181.67,251.32c-.22,1.26-1.19,2-2,2.75a105,105,0,0,1-24.28,16.48c-2.76,1.39-4.44.82-6.5-1.25q-35.23-35.38-70.65-70.59c-2.3-2.28-2.49-3.71,0-6,6.68-6.25,13.25-12.63,19.63-19.18,2.46-2.53,4-3.08,6.76-.26q37.28,37.57,74.81,74.9C180.28,249.1,181.47,249.86,181.67,251.32Z"/><path class="cls-4" d="M161,46.92c1.88-.06,2.75,1,3.68,1.95q35.47,35.43,71,70.85c2.08,2.07,2.44,3.51.16,5.69-6.86,6.54-13.65,13.15-20.27,19.94-2.3,2.36-3.71,2.27-6,0Q172,107.65,134.34,70.19c-2.51-2.5-2.52-3.93.21-6.29A110.9,110.9,0,0,1,156.3,49C157.92,48.17,159.62,47.52,161,46.92Z"/><path class="cls-2" d="M145.72,101.11a4.86,4.86,0,0,1-1.93,3.16Q106,142,68.26,179.83c-2.1,2.11-3.64,2.38-5.73.07a104.11,104.11,0,0,1-17-25.68c-1-2.14-.13-3.39,1.26-4.78q35.68-35.62,71.33-71.3c1.62-1.62,2.85-2.48,4.89-.4,7,7.15,14.09,14.15,21.13,21.23A16.6,16.6,0,0,1,145.72,101.11Z"/></g></g></svg>