<?xml version="1.0" encoding="UTF-8" standalone="no"?>
<svg
   height="24"
   version="1.1"
   width="24"
   id="svg28"
   sodipodi:docname="CalendarA.svg"
   inkscape:version="1.1.1 (3bf5ae0d25, 2021-09-20)"
   xmlns:inkscape="http://www.inkscape.org/namespaces/inkscape"
   xmlns:sodipodi="http://sodipodi.sourceforge.net/DTD/sodipodi-0.dtd"
   xmlns="http://www.w3.org/2000/svg"
   xmlns:svg="http://www.w3.org/2000/svg">
  <defs
     id="defs32" />
  <sodipodi:namedview
     id="namedview30"
     pagecolor="#ffffff"
     bordercolor="#666666"
     borderopacity="1.0"
     inkscape:pageshadow="2"
     inkscape:pageopacity="0.0"
     inkscape:pagecheckerboard="0"
     showgrid="false"
     inkscape:zoom="32.333333"
     inkscape:cx="12.015464"
     inkscape:cy="12"
     inkscape:window-width="1920"
     inkscape:window-height="1011"
     inkscape:window-x="0"
     inkscape:window-y="0"
     inkscape:window-maximized="1"
     inkscape:current-layer="svg28" />
  <g
     transform="translate(0 -1028.4)"
     id="g26">
    <path
       d="m5 1032.4c-1.1046 0-2 0.9-2 2v14c0 1.1 0.8954 2 2 2h6 2 6c1.105 0 2-0.9 2-2v-14c0-1.1-0.895-2-2-2h-6-2-6z"
       fill="#bdc3c7"
       id="path2" />
    <path
       d="m5 3c-1.1046 0-2 0.8954-2 2v14c0 1.105 0.8954 2 2 2h6 2 6c1.105 0 2-0.895 2-2v-14c0-1.1046-0.895-2-2-2h-6-2-6z"
       fill="#ecf0f1"
       transform="translate(0 1028.4)"
       id="path4" />
    <path
       d="m5 1031.4c-1.1046 0-2 0.9-2 2v3h18v-3c0-1.1-0.895-2-2-2h-6-2-6z"
       fill="#e74c3c"
       id="path6" />
    <path
       d="m7 5.5a1.5 1.5 0 1 1 -3 0 1.5 1.5 0 1 1 3 0z"
       fill="#c0392b"
       transform="translate(.5 1028.4)"
       id="path8" />
    <path
       d="m6 1c-0.5523 0-1 0.4477-1 1v3c0 0.5523 0.4477 1 1 1s1-0.4477 1-1v-3c0-0.5523-0.4477-1-1-1z"
       fill="#bdc3c7"
       transform="translate(0 1028.4)"
       id="path10" />
    <path
       d="m7 5.5a1.5 1.5 0 1 1 -3 0 1.5 1.5 0 1 1 3 0z"
       fill="#c0392b"
       transform="translate(12.5 1028.4)"
       id="path12" />
    <g
       fill="#bdc3c7"
       id="g22">
      <path
         d="m18 1029.4c-0.552 0-1 0.4-1 1v3c0 0.5 0.448 1 1 1s1-0.5 1-1v-3c0-0.6-0.448-1-1-1z"
         id="path14" />
      <path
         d="m5 1039.4v2h2v-2h-2zm3 0v2h2v-2h-2zm3 0v2h2v-2h-2zm3 0v2h2v-2h-2zm3 0v2h2v-2h-2z"
         id="path16" />
      <path
         d="m5 1042.4v2h2v-2h-2zm3 0v2h2v-2h-2zm3 0v2h2v-2h-2zm3 0v2h2v-2h-2zm3 0v2h2v-2h-2z"
         id="path18" />
      <path
         d="m5 1045.4v2h2v-2h-2zm3 0v2h2v-2h-2zm3 0v2h2v-2h-2zm3 0v2h2v-2h-2zm3 0v2h2v-2h-2z"
         id="path20" />
    </g>
    <rect
       fill="#c0392b"
       height="1"
       transform="translate(0 1028.4)"
       width="18"
       x="3"
       y="8"
       id="rect24" />
  </g>
  <path
     d="m 14.28657,11.045606 c -0.0348,0.027 -0.649264,0.373237 -0.649264,1.143115 0,0.890488 0.781878,1.205519 0.805281,1.213321 -0.0036,0.0192 -0.124215,0.431442 -0.412242,0.851483 -0.256826,0.369638 -0.525052,0.738675 -0.933093,0.738675 -0.40804,0 -0.513051,-0.237024 -0.984098,-0.237024 C 11.654109,14.755176 11.490893,15 11.117655,15 10.744418,15 10.483993,14.657966 10.184563,14.237924 9.837728,13.744675 9.5575,12.978399 9.5575,12.251127 c 0,-1.166517 0.758476,-1.785178 1.504949,-1.785178 0.396641,0 0.727273,0.260426 0.976297,0.260426 0.237024,0 0.606661,-0.276027 1.057906,-0.276027 0.171017,0 0.785478,0.0156 1.189918,0.595258 z M 12.882431,9.956499 c 0.186618,-0.221423 0.318632,-0.528653 0.318632,-0.835884 0,-0.0426 -0.0036,-0.08582 -0.0114,-0.120615 -0.30363,0.0114 -0.664866,0.202219 -0.882688,0.454845 -0.171017,0.194419 -0.330633,0.501651 -0.330633,0.813082 0,0.0468 0.0078,0.09361 0.0114,0.108615 0.0192,0.0036 0.0504,0.0078 0.08161,0.0078 0.272428,0 0.615061,-0.182418 0.813082,-0.427843 z"
     id="path2-6"
     style="stroke-width:0.0060006" />
</svg>
