<?xml version="1.0" encoding="UTF-8" standalone="no"?>
<svg
   height="24"
   version="1.1"
   width="24"
   id="svg28"
   sodipodi:docname="CalendarG.svg"
   inkscape:version="1.1.1 (3bf5ae0d25, 2021-09-20)"
   xmlns:inkscape="http://www.inkscape.org/namespaces/inkscape"
   xmlns:sodipodi="http://sodipodi.sourceforge.net/DTD/sodipodi-0.dtd"
   xmlns="http://www.w3.org/2000/svg"
   xmlns:svg="http://www.w3.org/2000/svg">
  <defs
     id="defs32" />
  <sodipodi:namedview
     id="namedview30"
     pagecolor="#ffffff"
     bordercolor="#666666"
     borderopacity="1.0"
     inkscape:pageshadow="2"
     inkscape:pageopacity="0.0"
     inkscape:pagecheckerboard="0"
     showgrid="false"
     inkscape:zoom="32.333333"
     inkscape:cx="12.015464"
     inkscape:cy="12"
     inkscape:window-width="1920"
     inkscape:window-height="1011"
     inkscape:window-x="0"
     inkscape:window-y="0"
     inkscape:window-maximized="1"
     inkscape:current-layer="svg28" />
  <g
     transform="translate(0 -1028.4)"
     id="g26">
    <path
       d="m5 1032.4c-1.1046 0-2 0.9-2 2v14c0 1.1 0.8954 2 2 2h6 2 6c1.105 0 2-0.9 2-2v-14c0-1.1-0.895-2-2-2h-6-2-6z"
       fill="#bdc3c7"
       id="path2" />
    <path
       d="m5 3c-1.1046 0-2 0.8954-2 2v14c0 1.105 0.8954 2 2 2h6 2 6c1.105 0 2-0.895 2-2v-14c0-1.1046-0.895-2-2-2h-6-2-6z"
       fill="#ecf0f1"
       transform="translate(0 1028.4)"
       id="path4" />
    <path
       d="m5 1031.4c-1.1046 0-2 0.9-2 2v3h18v-3c0-1.1-0.895-2-2-2h-6-2-6z"
       fill="#e74c3c"
       id="path6" />
    <path
       d="m7 5.5a1.5 1.5 0 1 1 -3 0 1.5 1.5 0 1 1 3 0z"
       fill="#c0392b"
       transform="translate(.5 1028.4)"
       id="path8" />
    <path
       d="m6 1c-0.5523 0-1 0.4477-1 1v3c0 0.5523 0.4477 1 1 1s1-0.4477 1-1v-3c0-0.5523-0.4477-1-1-1z"
       fill="#bdc3c7"
       transform="translate(0 1028.4)"
       id="path10" />
    <path
       d="m7 5.5a1.5 1.5 0 1 1 -3 0 1.5 1.5 0 1 1 3 0z"
       fill="#c0392b"
       transform="translate(12.5 1028.4)"
       id="path12" />
    <g
       fill="#bdc3c7"
       id="g22">
      <path
         d="m18 1029.4c-0.552 0-1 0.4-1 1v3c0 0.5 0.448 1 1 1s1-0.5 1-1v-3c0-0.6-0.448-1-1-1z"
         id="path14" />
      <path
         d="m5 1039.4v2h2v-2h-2zm3 0v2h2v-2h-2zm3 0v2h2v-2h-2zm3 0v2h2v-2h-2zm3 0v2h2v-2h-2z"
         id="path16" />
      <path
         d="m5 1042.4v2h2v-2h-2zm3 0v2h2v-2h-2zm3 0v2h2v-2h-2zm3 0v2h2v-2h-2zm3 0v2h2v-2h-2z"
         id="path18" />
      <path
         d="m5 1045.4v2h2v-2h-2zm3 0v2h2v-2h-2zm3 0v2h2v-2h-2zm3 0v2h2v-2h-2zm3 0v2h2v-2h-2z"
         id="path20" />
    </g>
    <rect
       fill="#c0392b"
       height="1"
       transform="translate(0 1028.4)"
       width="18"
       x="3"
       y="8"
       id="rect24" />
  </g>
  <g
     transform="matrix(0.24997871,0,0,0.24997871,15.687931,-0.80891477)"
     id="g10">
    <path
       fill="#4285f4"
       d="m -3.264,51.509 c 0,-0.79 -0.07,-1.54 -0.19,-2.27 h -11.3 v 4.51 h 6.47 c -0.29,1.48 -1.14,2.73 -2.4,3.58 v 3 h 3.86 c 2.26,-2.09 3.56,-5.17 3.56,-8.82 z"
       id="path2-3" />
    <path
       fill="#34a853"
       d="m -14.754,63.239 c 3.24,0 5.95,-1.08 7.93,-2.91 l -3.86,-3 c -1.08,0.72 -2.45,1.16 -4.07,1.16 -3.13,0 -5.78,-2.11 -6.73,-4.96 h -3.98 v 3.09 c 1.97,3.92 6.02,6.62 10.71,6.62 z"
       id="path4-5" />
    <path
       fill="#fbbc05"
       d="m -21.484,53.529 c -0.25,-0.72 -0.38,-1.49 -0.38,-2.29 0,-0.8 0.14,-1.57 0.38,-2.29 v -3.09 h -3.98 c -0.82,1.62 -1.29,3.44 -1.29,5.38 0,1.94 0.47,3.76 1.29,5.38 z"
       id="path6-6" />
    <path
       fill="#ea4335"
       d="m -14.754,43.989 c 1.77,0 3.35,0.61 4.6,1.8 l 3.42,-3.42 c -2.07,-1.94 -4.78,-3.13 -8.02,-3.13 -4.69,0 -8.74,2.7 -10.71,6.62 l 3.98,3.09 c 0.95,-2.85 3.6,-4.96 6.73,-4.96 z"
       id="path8-2" />
  </g>
</svg>
