<?xml version="1.0" encoding="UTF-8" standalone="no"?>
<svg
   width="43"
   height="43"
   viewBox="0 0 43 43"
   fill="none"
   version="1.1"
   id="svg40"
   sodipodi:docname="Constant.svg"
   inkscape:version="1.1.1 (3bf5ae0d25, 2021-09-20)"
   xmlns:inkscape="http://www.inkscape.org/namespaces/inkscape"
   xmlns:sodipodi="http://sodipodi.sourceforge.net/DTD/sodipodi-0.dtd"
   xmlns="http://www.w3.org/2000/svg"
   xmlns:svg="http://www.w3.org/2000/svg">
  <defs
     id="defs44" />
  <sodipodi:namedview
     id="namedview42"
     pagecolor="#ffffff"
     bordercolor="#666666"
     borderopacity="1.0"
     inkscape:pageshadow="2"
     inkscape:pageopacity="0.0"
     inkscape:pagecheckerboard="0"
     showgrid="false"
     inkscape:zoom="16.168831"
     inkscape:cx="12.276707"
     inkscape:cy="21.955823"
     inkscape:window-width="1920"
     inkscape:window-height="1011"
     inkscape:window-x="0"
     inkscape:window-y="0"
     inkscape:window-maximized="1"
     inkscape:current-layer="svg40" />
  <path
     fill-rule="evenodd"
     clip-rule="evenodd"
     d="m 27.3842,17.5018 c 0.3772,1.1316 1.4334,1.8105 2.6404,1.8105 0.3017,0 0.6035,-0.0754 0.9052,-0.1509 1.4334,-0.528 2.1878,-2.1122 1.6597,-3.5456 -0.9053,-2.4894 -2.7912,-4.4508 -5.4316,-5.65786 -1.3579,-0.60351 -3.0175,0 -3.6965,1.35786 -0.6035,1.3579 0,3.0176 1.3579,3.6965 1.3579,0.5281 2.2632,1.4334 2.5649,2.4895 z"
     fill="#ff9e1a"
     id="path32" />
  <path
     fill-rule="evenodd"
     clip-rule="evenodd"
     d="M 26.4789,0.0754217 C 24.9702,-0.226333 23.5368,0.754369 23.2351,2.26314 22.9333,3.77191 23.914,5.20525 25.4228,5.507 c 6.2614,1.28246 10.5614,5.4316 11.6175,11.5421 0.2264,1.3579 1.4334,2.2632 2.7158,2.2632 0.1509,0 0.3018,0 0.4527,-0.0755 1.5087,-0.3017 2.4894,-1.7351 2.2631,-3.1684 C 40.9632,7.77016 35.0035,1.73507 26.4789,0.0754217 Z"
     fill="#ff9e1a"
     id="path34" />
  <path
     fill-rule="evenodd"
     clip-rule="evenodd"
     d="m 19.4632,27.686 c -2.4895,0 -4.6018,-2.0369 -4.6018,-4.6018 0,-2.4894 2.0369,-4.6017 4.6018,-4.6017 1.5087,0 2.7912,-1.207 2.7912,-2.7912 0,-1.5088 -1.207,-2.7913 -2.7912,-2.7913 -5.5825,0 -10.1088,4.5263 -10.1088,10.1088 0,5.5825 4.5263,10.1088 10.1088,10.1088 5.5824,0 10.1087,-4.5263 10.1087,-10.1088 0,-1.5088 -1.207,-2.7912 -2.7912,-2.7912 -1.5088,0 -2.7912,1.207 -2.7912,2.7912 0.0754,2.6403 -1.9614,4.6772 -4.5263,4.6772 z"
     fill="#1856ed"
     id="path36" />
  <path
     fill-rule="evenodd"
     clip-rule="evenodd"
     d="m 36.2105,20.3683 c -1.5087,0 -2.7912,1.2071 -2.7912,2.7913 0,7.6947 -6.2614,13.9561 -13.9561,13.9561 -7.6948,0 -13.95618,-6.2614 -13.95618,-13.9561 0,-7.6948 6.26138,-13.95617 13.95618,-13.95617 1.5087,0 2.7912,-1.20702 2.7912,-2.79123 0,-1.50877 -1.207,-2.79123 -2.7912,-2.79123 C 8.75088,3.62097 0,12.3718 0,23.1596 c 0,10.7122 8.75088,19.4631 19.4632,19.4631 10.7122,0 19.4631,-8.7509 19.4631,-19.4631 0,-1.5842 -1.207,-2.7913 -2.7158,-2.7913 z"
     fill="#1856ed"
     id="path38" />
</svg>
